<?xml version="1.0" standalone="no"?><!DOCTYPE svg PUBLIC "-//W3C//DTD SVG 1.1//EN" "http://www.w3.org/Graphics/SVG/1.1/DTD/svg11.dtd"><svg t="1683682239732" class="icon" viewBox="0 0 1024 1024" version="1.1" xmlns="http://www.w3.org/2000/svg" p-id="1557" xmlns:xlink="http://www.w3.org/1999/xlink" width="200" height="200"><path d="M576 128a96 96 0 0 0-96 96v192a96 96 0 0 0 96 96h288a96 96 0 0 0 96-96V224a96 96 0 0 0-96-96h-288z m-32 96a32 32 0 0 1 32-32h288a32 32 0 0 1 32 32v192a32 32 0 0 1-32 32h-288a32 32 0 0 1-32-32V224zM128 352a32 32 0 0 1 32-32h208a16 16 0 0 0 16-16v-32a16 16 0 0 0-16-16H160a96 96 0 0 0-96 96v448a96 96 0 0 0 96 96h576a96 96 0 0 0 96-96v-176a16 16 0 0 0-16-16h-32a16 16 0 0 0-16 16V800a32 32 0 0 1-32 32H160a32 32 0 0 1-32-32V352z" fill="#ffffff" p-id="1558"></path></svg>