<?xml version="1.0" standalone="no"?><!DOCTYPE svg PUBLIC "-//W3C//DTD SVG 1.1//EN" "http://www.w3.org/Graphics/SVG/1.1/DTD/svg11.dtd"><svg t="1683682310473" class="icon" viewBox="0 0 1024 1024" version="1.1" xmlns="http://www.w3.org/2000/svg" p-id="2676" xmlns:xlink="http://www.w3.org/1999/xlink" width="200" height="200"><path d="M224 384a96 96 0 0 1 96-96h384a96 96 0 0 1 96 96v256a96 96 0 0 1-96 96H320a96 96 0 0 1-96-96v-256z m96-32a32 32 0 0 0-32 32v256a32 32 0 0 0 32 32h384a32 32 0 0 0 32-32v-256a32 32 0 0 0-32-32H320z" fill="#ffffff" p-id="2677"></path></svg>